
<svg width="232px" height="170px" viewBox="0 0 232 170" version="1.1" xmlns="http://www.w3.org/2000/svg" xmlns:xlink="http://www.w3.org/1999/xlink">
    <g id="Portal" stroke="none" stroke-width="1" fill="none" fill-rule="evenodd">
        <g id="Desktop-HD" transform="translate(-604.000000, -254.000000)" fill="#807363">
            <g id="logo" transform="translate(604.000000, 254.000000)">
                <path d="M178.909888,28.8392857 L232,80.4464286 L201.662793,80.4464286 L201.662793,80.4464286 L201.662793,86.5178571 C201.662793,132.053571 163.741285,170 118.235474,170 C85.0162329,170 63.9220146,150.587214 57.9032417,144.237616 L57.72,144.043 L57.803,143.965335 C60.6562143,141.240022 87.8368347,115.277835 90.690049,112.552522 L90.763,112.482 L90.7847269,112.509427 C92.7342049,114.959923 102.408003,124.225584 117.646634,124.459766 L118.235474,124.464286 C137.954659,124.464286 156.156983,109.285714 156.156983,86.5178571 L156.156983,86.5178571 L156.156983,80.4464286 L125.819776,80.4464286 L178.909888,28.8392857 Z M56.129,142.26 L56.1386705,142.271604 C56.2300461,142.381254 56.7429876,143.000175 57.6643893,143.984111 L57.72,144.043 C57.6144542,144.145429 57.5610607,144.196429 57.5610607,144.196429 C56.7267875,143.027679 56.2595946,142.428277 56.1493871,142.287108 L56.129,142.26 Z M113.764526,0 C146.983767,0 168.077985,19.4127857 174.096758,25.7623844 L174.279,25.956 L174.197,26.0346652 C171.343786,28.7599777 144.163165,54.7221652 141.309951,57.4474777 L141.236,57.517 L141.215273,57.4905727 C139.265795,55.0400773 129.591997,45.7744155 114.353366,45.5402345 L113.764526,45.5357143 C94.0453412,45.5357143 75.8430171,60.7142857 75.8430171,83.4821429 L75.8430171,83.4821429 L75.8430171,89.5535714 L106.180224,89.5535714 L53.090112,141.160714 L4.26325641e-14,89.5535714 L30.3372068,89.5535714 L30.3372068,89.5535714 L30.3372068,83.4821429 C30.3372068,37.9464286 68.2587154,0 113.764526,0 Z M90.9319882,112.321429 C90.9319882,112.321429 90.8785948,112.372429 90.7760793,112.470349 L90.763,112.482 L90.7135604,112.418571 C90.2645697,111.835714 90.3252441,111.714286 90.9319882,112.321429 Z M141.236,57.517 L141.28644,57.5814286 C141.73543,58.1642857 141.674756,58.2857143 141.068012,57.6785714 C141.068012,57.6785714 141.121405,57.6275714 141.223921,57.5296514 L141.236,57.517 Z M174.438939,25.8035714 C175.273212,26.9723214 175.740405,27.5717232 175.850613,27.7128915 L175.87,27.739 L175.86133,27.7283964 C175.769954,27.6187464 175.257012,26.999825 174.335611,26.0158893 L174.279,25.956 C174.385546,25.8545714 174.438939,25.8035714 174.438939,25.8035714 Z"></path>
            </g>
        </g>
    </g>
</svg>
