
<svg width="153px" height="112px" viewBox="0 0 153 112" version="1.1" xmlns="http://www.w3.org/2000/svg" xmlns:xlink="http://www.w3.org/1999/xlink">
    <g id="Portal" stroke="none" stroke-width="1" fill="none" fill-rule="evenodd">
        <g id="icon-copy" transform="translate(-4.000000, -24.000000)" stroke="#BCAD95" stroke-width="5">
            <g id="logo" transform="translate(4.000000, 24.000000)">
                <path d="M118,21.0912354 L86.6968599,51.5 L104.5,51.5 L104.5,57 C104.5,66.0772973 100.611199,73.0771391 94.0022024,77.8417646 C89.0102172,81.4406376 82.6074722,83.5 78,83.5 C70.7821749,83.5 64.730825,81.035299 59.9340736,76.1365988 C51.774171,83.9255967 51.5277309,84.160835 45.5702636,89.8475083 C43.0323115,92.2700989 43.0323115,92.2700989 41.2534511,93.9681021 C40.7818221,94.4182934 40.4691523,94.7167509 40.2367718,94.938561 C43.1276617,97.898835 46.8567489,100.90107 51.5818979,103.585525 C59.292596,107.966132 68.097628,110.5 78,110.5 C107.171573,110.5 131.5,86.1715729 131.5,57 L131.5,51.5 L149.30314,51.5 L118,21.0912354 Z M38.6373853,93.2651943 C38.6330787,93.2587806 38.6291988,93.2529723 38.6253481,93.2471833 C38.6352411,93.2620562 38.6442772,93.2756097 38.6525383,93.2880054 Z M38.6525383,93.2880054 C38.7801047,93.4794175 38.7228964,93.3947733 38.7833085,93.6292704 C38.8680501,93.8645942 38.8770493,93.8895846 38.6726335,94.5515777 L39.2480754,94.1679497 C39.0664151,93.8954592 38.9471476,93.7194468 38.7417963,93.4186946 C38.6805698,93.3289863 38.6552896,93.2918586 38.6373853,93.2651943 Z M37.4464057,95.4951776 C37.0176843,95.4821929 37.0149736,95.4812209 36.7992872,95.4038759 C36.3944766,95.1864982 36.3944766,95.1864982 36.3358353,95.1222196 C36.279227,95.0680586 36.2673228,95.056669 36.2635891,95.0525055 C36.275361,95.065103 36.2914136,95.0833232 36.3524403,95.1529009 C36.5795638,95.4123967 36.6644725,95.5086682 36.8379271,95.7011778 L37.010197,95.8910261 L37.4464057,95.4951776 Z M36.2635891,95.0525055 C36.2625948,95.0513968 36.2621799,95.0508005 36.2616546,95.0500454 C36.2628153,95.0513074 36.2639925,95.0525939 36.2652641,95.0539932 Z M37.9963196,94.9961444 L38.121,94.883 L37.0259679,93.8578636 L37.0127679,93.8719636 C37.004253,93.8768167 37.004253,93.8768167 36.9730864,93.9065667 L36.9642864,93.9149667 L37.9963196,94.9961444 Z M3.69685992,60.5 L35,90.9087646 L66.3031401,60.5 L48.5,60.5 L48.5,55 C48.5,39.8280364 60.4753528,28.5 75.0121105,28.5000489 L75.4327716,28.5034944 C83.0106611,28.6259856 89.5416209,31.9990021 93.1993322,35.7360593 C93.7279969,35.2314248 94.3684606,34.6200731 96.0404739,33.0240604 C99.2517864,29.9587167 99.2517864,29.9587167 102.964286,26.4149667 C106.676786,22.8712167 106.676786,22.8712167 109.888099,19.8058729 C111.597259,18.1744019 112.228525,17.57183 112.763729,17.0609546 C109.711321,14.0256025 105.737646,10.9203677 100.884401,8.22956879 C93.1809857,3.95854213 84.5370811,1.5 75,1.5 C45.8284271,1.5 21.5,25.8284271 21.5,55 L21.5,60.5 L3.69685992,60.5 Z M94.0448417,36.9551583 C94.0873782,36.9798808 94.1201018,37.0027185 94.1492673,37.025221 C94.1329726,37.0098477 94.1026126,36.9812922 94.0606602,36.9393398 L94.0448417,36.9551583 Z M94.1492673,37.025221 C94.149349,37.025284 94.1494306,37.025347 94.1495122,37.02541 C94.1498767,37.0256914 94.1481228,37.0240551 94.1444807,37.0206396 Z M93.0956667,37.9043333 L93,38 L94.0357136,39.0850333 L94.1384976,38.9869213 L94.2673076,38.8473428 L94.2745236,38.8384548 L93.11,37.893 L93.0956667,37.9043333 Z M91.9506361,38.8097064 L91.9333766,38.8233534 L91.9673766,38.8663534 C91.9898405,38.8956828 92.007657,38.9213815 92.0008044,38.9094098 C91.9837415,38.8796003 91.9671294,38.8476206 91.9506361,38.8097064 Z M114.751515,19.1852897 C114.747278,19.1799339 114.73772,19.1661643 114.690471,19.098103 L114.669824,19.0654872 L114.577735,18.8910034 L115.64546,17.8888871 L115.928861,18.1867992 C116.017194,18.1027108 116.017194,18.1027108 116.035714,18.0850333 L115.752546,17.7883813 L116.644365,16.9513619 C116.93447,17.1745256 117.020834,17.2409616 117.050975,17.2662376 C117.038196,17.245147 116.918298,17.1038013 116.812039,16.9817149 C116.588457,16.7248302 116.327262,16.4352664 116.026426,16.1142245 L115.996273,16.081571 L115.00147,17.0015396 L115,17 L113.7794,17.8718573 C114.069752,18.278351 114.317646,18.6157483 114.526351,18.8917983 C114.597697,18.9861661 114.658195,19.0650736 114.711992,19.1343562 C114.736827,19.1662738 114.739475,19.1696759 114.750602,19.1839132 Z"></path>
            </g>
        </g>
    </g>
</svg>