<svg width="776px" height="112px" viewBox="0 0 776 112" version="1.1" xmlns="http://www.w3.org/2000/svg" xmlns:xlink="http://www.w3.org/1999/xlink">
    <g id="Portal" stroke="#FFFFFF" stroke-width="3" fill="none" fill-rule="evenodd">
        <g id="logo">
            <path d="M118,21.0912354 L86.6968599,51.5 L104.5,51.5 L104.5,57 C104.5,66.0772973 100.611199,73.0771391 94.0022024,77.8417646 C89.0102172,81.4406376 82.6074722,83.5 78,83.5 C71.4015005,83.5 65.8090453,81.428228 61.2126432,77.2871259 L41.5992034,96.2659442 C44.8162771,99.2881795 48.7603017,102.178809 53.4777124,104.612596 C60.7549381,108.367032 68.9280167,110.5 78,110.5 C107.171573,110.5 131.5,86.1715729 131.5,57 L131.5,51.5 L149.30314,51.5 L118,21.0912354 Z M3.69685992,60.5 L35,90.9087646 L66.3031401,60.5 L48.5,60.5 L48.5,55 C48.5,39.8280364 60.4753528,28.5 75,28.5 C81.8495092,28.5 87.7081524,31.0489409 91.9581519,34.6540341 L111.450879,15.8130715 C108.122796,12.7526739 104.047371,9.8138637 99.2594281,7.36354832 C91.948053,3.62182153 83.8498312,1.5 75,1.5 C45.8284271,1.5 21.5,25.8284271 21.5,55 L21.5,60.5 L3.69685992,60.5 Z"></path>
        </g>
        <path d="M180.451172,7.35742188 L180.451172,106 L205.539062,106 L205.539062,77.0839844 L221.671875,77.0839844 C243.615234,77.0839844 258.722656,63.34375 258.722656,42.2890625 C258.722656,21.0976562 244.367188,7.35742188 223.175781,7.35742188 L180.451172,7.35742188 Z M205.539062,26.5664062 L216.544922,26.5664062 C227.072266,26.5664062 233.361328,32.1035156 233.361328,42.3574219 C233.361328,52.6796875 227.072266,58.2167969 216.408203,58.2167969 L205.539062,58.2167969 L205.539062,26.5664062 Z M328.996094,5.6484375 C299.123047,5.6484375 280.255859,25.2675781 280.255859,56.7128906 C280.255859,88.1582031 299.054688,107.708984 328.996094,107.708984 C358.869141,107.708984 377.667969,88.1582031 377.667969,56.7128906 C377.667969,25.2675781 358.869141,5.6484375 328.996094,5.6484375 Z M328.996094,26.0195312 C343.009766,26.0195312 352.169922,37.9140625 352.169922,56.7128906 C352.169922,75.4433594 343.009766,87.3378906 328.996094,87.3378906 C314.914062,87.3378906 305.822266,75.4433594 305.822266,56.7128906 C305.822266,37.9140625 314.982422,26.0195312 328.996094,26.0195312 Z M428.117188,26.2929688 L442.746094,26.2929688 C451.701172,26.2929688 457.511719,31.9667969 457.511719,40.375 C457.511719,48.9199219 452.042969,54.3203125 442.814453,54.3203125 L428.117188,54.3203125 L428.117188,26.2929688 Z M428.117188,71.4785156 L440.900391,71.4785156 L457.853516,106 L486.017578,106 L466.261719,67.7871094 C477.0625,63.0703125 483.146484,51.9960938 483.146484,39.8964844 C483.146484,19.5253906 469.884766,7.35742188 445.275391,7.35742188 L403.029297,7.35742188 L403.029297,106 L428.117188,106 L428.117188,71.4785156 Z M556.701172,106 L556.701172,27.5917969 L583.908203,27.5917969 L583.908203,7.35742188 L504.474609,7.35742188 L504.474609,27.5917969 L531.681641,27.5917969 L531.681641,106 L556.701172,106 Z M659.376953,106 L686.037109,106 L652.882812,7.35742188 L622.189453,7.35742188 L589.035156,106 L614.601562,106 L620.890625,84.3300781 L653.15625,84.3300781 L659.376953,106 Z M636.75,28.2753906 L637.296875,28.2753906 L648.234375,66.2832031 L625.744141,66.2832031 L636.75,28.2753906 Z M774.494141,85.765625 L774.494141,106 L708.595703,106 L708.595703,7.35742188 L733.683594,7.35742188 L733.683594,85.765625 L774.494141,85.765625 Z" id="PORTAL" fill-opacity="0" fill="#FFFFFF" fill-rule="nonzero"></path>
    </g>
</svg>
