<svg width="64px" height="64px" viewBox="0 0 64 64" version="1.1" xmlns="http://www.w3.org/2000/svg" xmlns:xlink="http://www.w3.org/1999/xlink">
    <g stroke="none" stroke-width="1" fill="none" fill-rule="evenodd">
        <g id="google-chrome" transform="translate(6.000000, 6.000000)" fill-rule="nonzero">
            <path d="M49,16.374275 L25.2600346,16.374275 C19.9542758,16.3689541 15.6488446,20.7626167 15.6435408,26.1878251 C15.6419396,27.8729254 16.0642467,29.5300907 16.8699327,31 L5,10.1746654 C13.6455877,-1.26688719 29.725282,-3.37561604 40.9149199,5.46461161 C44.5084334,8.30363926 47.2988628,12.0689195 49,16.374275 Z" id="Path" fill="#DE5347"></path>
            <path d="M51,25.5454184 C50.988073,39.5986463 39.4539451,50.9881086 25.2222172,51 C24.1443856,51.0038188 23.0676615,50.9329242 22,50.7877545 L33.599982,30.3181227 C36.2586133,25.7478606 34.6737859,19.9151187 30.055543,17.2727308 C28.5933613,16.4368116 26.9332146,15.9976233 25.2436651,16 L49.1095204,16 C50.3639698,19.0296826 51.006198,22.2723375 51,25.5454184 Z" id="Path" fill="#FFCD41"></path>
            <path d="M34,30.4360708 L22.4535216,51 L22.4321727,51 C8.38115084,49.2307591 -1.57026977,36.4445175 0.205001285,22.4412236 C0.779618999,17.9087425 2.56280821,13.6125997 5.36904347,10 L17.2576063,30.3294888 L17.3217534,30.4360708 C19.9729331,35.0259883 25.8556233,36.6049399 30.4611848,33.9628655 C31.9323585,33.1189 33.1532583,31.9021474 34,30.4360708 Z" id="Path" fill="#17A15F"></path>
            <path d="M33.7337532,30.2409217 C31.1177803,34.7851256 25.3132102,36.3483515 20.768809,33.7325911 C19.3172709,32.8970311 18.1125843,31.6923968 17.2769881,30.2409217 L17.2136928,30.1354012 C14.6501363,25.56143 16.2801868,19.7754074 20.8543565,17.2119622 C22.2751371,16.4157622 23.8768036,15.9984273 25.5053706,16 L25.5264361,16 C27.1858596,15.9976362 28.8164045,16.4344533 30.2525144,17.2658597 C34.7885092,19.8940809 36.344979,25.6953332 33.7337532,30.2409217 Z" id="Path" fill="#F44336"></path>
            <path d="M33.7337532,30.2409217 C31.1177803,34.7851256 25.3132102,36.3483515 20.768809,33.7325911 C19.3172709,32.8970311 18.1125843,31.6923968 17.2769881,30.2409217 L17.2136928,30.1354012 C14.6501363,25.56143 16.2801868,19.7754074 20.8543565,17.2119622 C22.2751371,16.4157622 23.8768036,15.9984273 25.5053706,16 L25.5264361,16 C27.1858596,15.9976362 28.8164045,16.4344533 30.2525144,17.2658597 C34.7885092,19.8940809 36.344979,25.6953332 33.7337532,30.2409217 Z" id="Path" fill="#2196F3"></path>
            <path d="M25.4641567,35.9999874 C23.6348059,35.9999874 21.837718,35.5173434 20.2537823,34.6013821 C18.656666,33.6769551 17.330244,32.3488358 16.4074044,30.7500133 C13.510129,25.7279267 15.2295102,19.3062552 20.2477822,16.4067774 C21.844505,15.4842208 23.6560522,14.9990222 25.4998624,15.0000033 C31.2944133,14.9954784 35.9955637,19.6929179 36,25.4918735 C36.0014654,27.3377743 35.5165369,29.1513876 34.5942876,30.7500133 L34.5942876,30.7500133 C32.7033617,34.003374 29.2249589,36.0035264 25.4641567,35.9999874 Z M25.5186497,17.0998553 C22.5074701,17.0839293 19.7196724,18.6877722 18.2182631,21.3000092 C15.9004427,25.3221672 17.2795871,30.4632647 21.29869,32.7828469 C25.3177929,35.1024292 30.4549854,33.7222364 32.7728058,29.7000784 L32.7728058,29.7000784 C35.0906261,25.6824486 33.7151211,20.5450917 29.7005429,18.225411 C28.4294992,17.491067 26.9882879,17.1030262 25.5207153,17.1000731 L25.5186497,17.1000731 L25.5186497,17.0998553 Z" id="Shape" fill="#FAFAFA"></path>
        </g>
        <g id="check_circle-24px" transform="translate(44.000000, 38.000000)">
            <circle id="Oval" fill="#FFFFFF" cx="10" cy="10" r="10"></circle>
            <path d="M10,0 C4.48,0 0,4.48 0,10 C0,15.52 4.48,20 10,20 C15.52,20 20,15.52 20,10 C20,4.48 15.52,0 10,0 Z M7.29,14.29 L3.7,10.7 C3.31,10.31 3.31,9.68 3.7,9.29 C4.09,8.9 4.72,8.9 5.11,9.29 L8,12.17 L14.88,5.29 C15.27,4.9 15.9,4.9 16.29,5.29 C16.68,5.68 16.68,6.31 16.29,6.7 L8.7,14.29 C8.32,14.68 7.68,14.68 7.29,14.29 Z" id="Shape" fill="#62D685" fill-rule="nonzero"></path>
        </g>
    </g>
</svg>