<svg width="60px" height="60px" viewBox="0 0 60 60" version="1.1" xmlns="http://www.w3.org/2000/svg" xmlns:xlink="http://www.w3.org/1999/xlink">
    <g id="Portal" stroke="none" stroke-width="1" fill="none" fill-rule="evenodd">
        <g id="Artboard-Copy">
            <g id="tailwind-css-seeklogo.com">
                <rect id="Rectangle" x="0" y="0" width="60" height="60"></rect>
                <path d="M29.8742138,18 C24.5073375,18 21.1530398,20.6666667 19.8113208,26 C21.8238994,23.3333333 24.1719078,22.3333333 26.8553459,23 C28.3863964,23.3803704 29.4807175,24.4841481 30.6919917,25.706 C32.6652132,27.6963704 34.9489681,30 39.9371069,30 C45.3039832,30 48.658281,27.3333333 50,22 C47.9874214,24.6666667 45.6394131,25.6666667 42.9559748,25 C41.4249244,24.6196296 40.3306033,23.5158519 39.1193291,22.294 C37.1461075,20.3036296 34.8623527,18 29.8742138,18 Z M20.0628931,30 C14.6960168,30 11.3417191,32.6666667 10,38 C12.0125786,35.3333333 14.360587,34.3333333 17.0440252,35 C18.5750757,35.3803703 19.6693967,36.4841481 20.8806709,37.706 C22.8538924,39.6963703 25.1376473,42 30.1257862,42 C35.4926624,42 38.8469602,39.3333333 40.1886792,34 C38.1761006,36.6666667 35.8280923,37.6666667 33.1446541,37 C31.6136036,36.6196297 30.5192825,35.5158519 29.3080083,34.294 C27.3347868,32.3036296 25.0510319,30 20.0628931,30 Z" id="Shape" fill="#327EE6" fill-rule="nonzero"></path>
            </g>
        </g>
    </g>
</svg>