
<svg width="64px" height="64px" viewBox="0 0 64 64" version="1.1" xmlns="http://www.w3.org/2000/svg" xmlns:xlink="http://www.w3.org/1999/xlink">
    <g stroke="none" stroke-width="1" fill="none" fill-rule="evenodd">
        <g id="vs-icon" transform="translate(1.000000, 4.000000)" fill="#007ACC">
            <polygon id="path951" points="41.245456 0 41.245456 47.2374723 0 41.1114862 41.245456 55 54.9954562 49.2801538 54.9954562 6.57261539 55 6.5705497 54.9954562 6.56146004 54.9954562 5.72025771"></polygon>
            <path d="M26.4194174,8 L13.7615144,20.5238919 L6.14077583,14.7792689 L3,15.8292453 L10.7532084,23.5006206 L3,31.1715836 L6.14077583,32.2219741 L13.7615144,26.4769361 L13.7619286,26.4769361 L26.4190019,39 L34,35.7758997 L34,11.2240994 L26.4194174,8 Z M26.4190019,16.9359886 L26.4190019,30.0635965 L17.7107701,23.4997933 L26.4190019,16.9359886 Z" id="path887"></path>
        </g>
        <g id="Group" transform="translate(44.000000, 38.000000)">
            <circle id="Oval" fill="#FFFFFF" cx="10" cy="10" r="10"></circle>
            <path d="M10,0 C4.48,0 0,4.48 0,10 C0,15.52 4.48,20 10,20 C15.52,20 20,15.52 20,10 C20,4.48 15.52,0 10,0 Z M7.29,14.29 L3.7,10.7 C3.31,10.31 3.31,9.68 3.7,9.29 C4.09,8.9 4.72,8.9 5.11,9.29 L8,12.17 L14.88,5.29 C15.27,4.9 15.9,4.9 16.29,5.29 C16.68,5.68 16.68,6.31 16.29,6.7 L8.7,14.29 C8.32,14.68 7.68,14.68 7.29,14.29 Z" id="Shape-Copy" fill="#62D685" fill-rule="nonzero"></path>
        </g>
    </g>
</svg>